<?xml version="1.0" encoding="utf-8"?>
<svg viewBox="0 0 256 256" xmlns="http://www.w3.org/2000/svg" fill="white">
	<path d="M202.2,204.6L202.2,204.6l1.5,3.9l4.7,12l0,0l0.5,1.2l5.1,13.1c0.1,0.4,0.6,0.6,0.9,0.4l28-10.9c0.4-0.1,0.6-0.6,0.4-0.9
		l-4.3-11l0,0l-0.7-1.9L191.7,91.2l0,0l-8.5-21.8l0,0l-3.7-9.5c-0.1-0.4-0.6-0.6-0.9-0.4l-28,10.9c-0.4,0.1-0.6,0.6-0.4,0.9
		L202.2,204.6z"/>
	<path d="M148.8,235.5l21.7-3.1c0.4-0.1,0.7-0.4,0.6-0.8L143.7,41.5c-0.1-0.4-0.4-0.7-0.8-0.6l-29.7,4.3c-0.4,0.1-0.7,0.4-0.6,0.8
		l27.3,189.5h-27.3V42h-35v193.5l-5.3-0.1l0-205l-49.8,0.1v164.8v40.1H0.8v18.9H256v-18.9H148.8z M32.3,120.8h30.1v53.2H32.3V120.8z
		 M28.4,195.4h37.9v13H28.4V195.4z M107.1,204.5H83v-5.2h24.1V204.5z M107.1,217.9v3.9H83v-3.9H107.1z M107.1,53.9v25.6H83V53.9
		H107.1z"/>
</svg>
